<?xml version="1.0" encoding="utf-8"?>
<!-- Generator: Adobe Illustrator 24.3.0, SVG Export Plug-In . SVG Version: 6.00 Build 0)  -->
<svg version="1.1" id="Layer_1" xmlns="http://www.w3.org/2000/svg" xmlns:xlink="http://www.w3.org/1999/xlink" x="0px" y="0px"
	 width="24px" height="24px" viewBox="0 0 24 24" style="enable-background:new 0 0 24 24;" xml:space="preserve">
<style type="text/css">
	.st0{fill:none;}
	.st1{fill:#282828;}
</style>
<g>
	<rect class="st0" width="24" height="24"/>
</g>
<g>
	<path class="st1" d="M20.4,11.7l-4.6-2c-0.2-0.1-0.3-0.1-0.5-0.1h-0.8V4.3c0-1.6-1.2-3-2.8-3.2c-1.8-0.2-3.3,1.3-3.3,3V14l-2.3-0.5
		c-0.2,0-1.2-0.2-2.1,0.7l-1.7,1.7l6.2,6.3c0.4,0.5,1.1,0.7,1.7,0.7h7.9c1.2,0,2.2-0.8,2.4-2l1.1-6.6C21.9,13.2,21.3,12.2,20.4,11.7
		z M19.3,13.9l-1.1,6.6h-7.9l-4.5-4.6l5.1,1.1V4.1c0-0.3,0.3-0.6,0.6-0.6S12,3.8,12,4.1v7.5h2.1L19.3,13.9z"/>
</g>
</svg>
